<svg width="32" height="22" viewBox="0 0 32 22" fill="none" xmlns="http://www.w3.org/2000/svg">
<mask id="path-1-inside-1_567_5054" fill="white">
<path d="M0 1C0 0.447716 0.447715 0 1 0H30.447C31.1743 0 31.6583 0.751704 31.3574 1.4138L27.1881 10.5862C27.0686 10.8491 27.0686 11.1509 27.1881 11.4138L31.3574 20.5862C31.6583 21.2483 31.1743 22 30.447 22H1C0.447715 22 0 21.5523 0 21V1Z"/>
</mask>
<path d="M0 1C0 0.447716 0.447715 0 1 0H30.447C31.1743 0 31.6583 0.751704 31.3574 1.4138L27.1881 10.5862C27.0686 10.8491 27.0686 11.1509 27.1881 11.4138L31.3574 20.5862C31.6583 21.2483 31.1743 22 30.447 22H1C0.447715 22 0 21.5523 0 21V1Z" stroke="#F7EFDD" stroke-width="6" mask="url(#path-1-inside-1_567_5054)"/>
</svg>
